<?xml version="1.0" encoding="UTF-8"?>
<!DOCTYPE svg PUBLIC "-//W3C//DTD SVG 1.1//EN" "http://www.w3.org/Graphics/SVG/1.1/DTD/svg11.dtd">
<svg xmlns="http://www.w3.org/2000/svg" version="1.1" width="118px" height="117px" style="shape-rendering:geometricPrecision; text-rendering:geometricPrecision; image-rendering:optimizeQuality; fill-rule:evenodd; clip-rule:evenodd" xmlns:xlink="http://www.w3.org/1999/xlink">
<g><path style="opacity:0.986" fill="#dde3e8" d="M 66.5,1.5 C 79.4951,2.03686 92.4951,2.53686 105.5,3C 108.937,4.10491 111.437,6.27158 113,9.5C 114.846,25.747 115.679,42.0803 115.5,58.5C 115.679,74.907 114.846,91.2403 113,107.5C 110.635,110.869 107.468,113.036 103.5,114C 75.8402,115.156 48.1735,115.489 20.5,115C 11.1097,115.573 5.27635,111.407 3,102.5C 2.33333,73.5 2.33333,44.5 3,15.5C 3.1277,8.3728 6.6277,4.20613 13.5,3C 31.3381,2.83163 49.0047,2.33163 66.5,1.5 Z"/></g>
<g><path style="opacity:1" fill="#ccd6dd" d="M 12.5,8.5 C 17.8333,8.5 23.1667,8.5 28.5,8.5C 28.5,15.1667 28.5,21.8333 28.5,28.5C 21.8333,28.5 15.1667,28.5 8.5,28.5C 8.33398,23.1563 8.50065,17.8229 9,12.5C 10.0319,10.9733 11.1986,9.63997 12.5,8.5 Z"/></g>
<g><path style="opacity:1" fill="#ccd6dd" d="M 35.5,8.5 C 42.1667,8.5 48.8333,8.5 55.5,8.5C 55.5,15.1667 55.5,21.8333 55.5,28.5C 48.8333,28.5 42.1667,28.5 35.5,28.5C 35.5,21.8333 35.5,15.1667 35.5,8.5 Z"/></g>
<g><path style="opacity:1" fill="#ccd6dd" d="M 61.5,8.5 C 68.1667,8.5 74.8333,8.5 81.5,8.5C 81.5,15.1667 81.5,21.8333 81.5,28.5C 74.8333,28.5 68.1667,28.5 61.5,28.5C 61.5,21.8333 61.5,15.1667 61.5,8.5 Z"/></g>
<g><path style="opacity:1" fill="#dc3045" d="M 99.5,34.5 C 95.5821,41.3346 91.9154,48.3346 88.5,55.5C 82.0713,66.0221 76.4046,77.0221 71.5,88.5C 68.6697,91.5281 65.3364,92.1948 61.5,90.5C 54.5205,83.8549 47.5205,77.1882 40.5,70.5C 33.429,82.3022 26.5956,94.3022 20,106.5C 14.1037,110.061 10.2704,108.561 8.5,102C 11.632,95.5689 14.632,89.0689 17.5,82.5C 21.7376,75.6981 25.7376,68.6981 29.5,61.5C 30.7693,57.9464 32.7693,54.9464 35.5,52.5C 39.9288,51.8867 43.5954,53.22 46.5,56.5C 51.8123,62.479 57.479,68.1457 63.5,73.5C 66.7801,67.9379 69.7801,62.2712 72.5,56.5C 76.4179,49.6654 80.0846,42.6654 83.5,35.5C 87.9715,27.2285 92.4715,18.8951 97,10.5C 102.546,7.0391 106.379,8.37243 108.5,14.5C 106.023,21.4508 103.023,28.1174 99.5,34.5 Z"/></g>
<g><path style="opacity:1" fill="#ccd6dd" d="M 8.5,35.5 C 15.1667,35.5 21.8333,35.5 28.5,35.5C 28.5,42.1667 28.5,48.8333 28.5,55.5C 21.8333,55.5 15.1667,55.5 8.5,55.5C 8.5,48.8333 8.5,42.1667 8.5,35.5 Z"/></g>
<g><path style="opacity:1" fill="#ccd5dc" d="M 46.5,56.5 C 43.5954,53.22 39.9288,51.8867 35.5,52.5C 35.5,46.8333 35.5,41.1667 35.5,35.5C 42.1667,35.5 48.8333,35.5 55.5,35.5C 55.5,42.1667 55.5,48.8333 55.5,55.5C 52.2869,55.19 49.2869,55.5233 46.5,56.5 Z"/></g>
<g><path style="opacity:1" fill="#cdd4db" d="M 83.5,35.5 C 80.0846,42.6654 76.4179,49.6654 72.5,56.5C 69.0381,55.5184 65.3714,55.185 61.5,55.5C 61.5,48.8333 61.5,42.1667 61.5,35.5C 68.8333,35.5 76.1667,35.5 83.5,35.5 Z"/></g>
<g><path style="opacity:1" fill="#cdd4db" d="M 99.5,34.5 C 102.287,35.4767 105.287,35.81 108.5,35.5C 108.5,42.1667 108.5,48.8333 108.5,55.5C 101.833,55.5 95.1667,55.5 88.5,55.5C 91.9154,48.3346 95.5821,41.3346 99.5,34.5 Z"/></g>
<g><path style="opacity:1" fill="#cdd3db" d="M 29.5,61.5 C 25.7376,68.6981 21.7376,75.6981 17.5,82.5C 14.7131,81.5233 11.7131,81.19 8.5,81.5C 8.5,74.8333 8.5,68.1667 8.5,61.5C 15.5,61.5 22.5,61.5 29.5,61.5 Z"/></g>
<g><path style="opacity:1" fill="#ccd6dd" d="M 88.5,61.5 C 95.1667,61.5 101.833,61.5 108.5,61.5C 108.5,68.1667 108.5,74.8333 108.5,81.5C 101.833,81.5 95.1667,81.5 88.5,81.5C 88.5,74.8333 88.5,68.1667 88.5,61.5 Z"/></g>
<g><path style="opacity:1" fill="#ccd6dd" d="M 35.5,88.5 C 42.1667,88.5 48.8333,88.5 55.5,88.5C 55.5,95.1667 55.5,101.833 55.5,108.5C 48.8333,108.5 42.1667,108.5 35.5,108.5C 35.5,101.833 35.5,95.1667 35.5,88.5 Z"/></g>
<g><path style="opacity:1" fill="#ccd5dc" d="M 71.5,88.5 C 74.8333,88.5 78.1667,88.5 81.5,88.5C 81.5,95.1667 81.5,101.833 81.5,108.5C 74.8333,108.5 68.1667,108.5 61.5,108.5C 61.5,102.5 61.5,96.5 61.5,90.5C 65.3364,92.1948 68.6697,91.5281 71.5,88.5 Z"/></g>
<g><path style="opacity:1" fill="#ccd6dd" d="M 88.5,88.5 C 95.1667,88.5 101.833,88.5 108.5,88.5C 108.666,93.8437 108.499,99.1771 108,104.5C 107.021,106.32 105.521,107.487 103.5,108C 98.5111,108.499 93.5111,108.666 88.5,108.5C 88.5,101.833 88.5,95.1667 88.5,88.5 Z"/></g>
</svg>
