<?xml version="1.0" encoding="UTF-8"?>
<!DOCTYPE svg PUBLIC "-//W3C//DTD SVG 1.1//EN" "http://www.w3.org/Graphics/SVG/1.1/DTD/svg11.dtd">
<svg xmlns="http://www.w3.org/2000/svg" version="1.1" width="205px" height="207px" style="shape-rendering:geometricPrecision; text-rendering:geometricPrecision; image-rendering:optimizeQuality; fill-rule:evenodd; clip-rule:evenodd" xmlns:xlink="http://www.w3.org/1999/xlink">
<g><path style="opacity:1" fill="#f676ae" d="M 59.5,6.5 C 67.7254,7.01667 75.0588,9.68334 81.5,14.5C 81.4606,15.5832 81.1272,16.5832 80.5,17.5C 81.0253,18.1924 81.6919,18.6924 82.5,19C 77.1871,19.3043 72.0204,18.8043 67,17.5C 62.464,19.1262 57.964,20.9595 53.5,23C 52.7476,23.6708 52.4142,24.5041 52.5,25.5C 46.4447,26.6377 40.778,28.3044 35.5,30.5C 34.1667,29.5 32.8333,28.5 31.5,27.5C 31.1961,26.8501 30.8627,26.1835 30.5,25.5C 32.5175,20.9727 35.5175,17.1393 39.5,14C 43.4749,12.564 47.1415,10.564 50.5,8C 53.6946,7.81948 56.6946,7.31948 59.5,6.5 Z"/></g>
<g><path style="opacity:1" fill="#f070be" d="M 59.5,6.5 C 56.6946,7.31948 53.6946,7.81948 50.5,8C 47.1415,10.564 43.4749,12.564 39.5,14C 35.5175,17.1393 32.5175,20.9727 30.5,25.5C 30.8627,26.1835 31.1961,26.8501 31.5,27.5C 30.1466,29.1827 28.4799,30.5161 26.5,31.5C 24.8333,31.5 23.1667,31.5 21.5,31.5C 23.1285,27.3789 24.2952,23.0456 25,18.5C 27.8087,16.4707 28.9754,13.9707 28.5,11C 27.552,10.5172 26.552,10.3505 25.5,10.5C 36.3876,5.9105 47.7209,4.57717 59.5,6.5 Z"/></g>
<g><path style="opacity:1" fill="#f46ed5" d="M 25.5,10.5 C 26.552,10.3505 27.552,10.5172 28.5,11C 28.9754,13.9707 27.8087,16.4707 25,18.5C 24.2952,23.0456 23.1285,27.3789 21.5,31.5C 20.5836,33.6723 18.917,35.0057 16.5,35.5C 15.8076,34.9747 15.3076,34.3081 15,33.5C 11.5259,34.9277 11.0259,34.4277 13.5,32C 11.8056,30.2723 10.6389,30.7723 10,33.5C 8.44531,28.2318 6.77865,28.2318 5,33.5C 4.32924,32.7476 3.4959,32.4142 2.5,32.5C 2.5,32.1667 2.5,31.8333 2.5,31.5C 6.67079,20.6622 14.3375,13.6622 25.5,10.5 Z"/></g>
<g><path style="opacity:1" fill="#f4749d" d="M 81.5,14.5 C 91.0837,20.4255 97.7504,28.7589 101.5,39.5C 99.636,39.6792 97.636,39.1792 95.5,38C 89.4544,31.9912 82.2877,29.1578 74,29.5C 73.1475,27.8753 72.1475,27.5419 71,28.5C 67.6217,26.3286 63.955,24.9953 60,24.5C 59.3333,25.1667 58.6667,25.8333 58,26.5C 56.0757,26.3482 54.2424,26.3482 52.5,26.5C 52.5,26.1667 52.5,25.8333 52.5,25.5C 52.4142,24.5041 52.7476,23.6708 53.5,23C 57.964,20.9595 62.464,19.1262 67,17.5C 72.0204,18.8043 77.1871,19.3043 82.5,19C 81.6919,18.6924 81.0253,18.1924 80.5,17.5C 81.1272,16.5832 81.4606,15.5832 81.5,14.5 Z"/></g>
<g><path style="opacity:1" fill="#f7548c" d="M 52.5,25.5 C 52.5,25.8333 52.5,26.1667 52.5,26.5C 50.6968,27.0464 49.0302,27.8797 47.5,29C 51.6019,29.3263 55.6019,29.8263 59.5,30.5C 61.8008,31.0604 64.1341,31.5604 66.5,32C 63.9009,32.769 61.4009,32.6023 59,31.5C 58.0053,32.0659 57.172,32.7326 56.5,33.5C 50.9611,32.6964 45.4611,32.6964 40,33.5C 38.7912,35.1835 37.2912,36.5168 35.5,37.5C 34.0267,36.9285 32.36,36.9285 30.5,37.5C 31.7787,34.8883 33.4453,32.5549 35.5,30.5C 40.778,28.3044 46.4447,26.6377 52.5,25.5 Z"/></g>
<g><path style="opacity:1" fill="#f66b8f" d="M 101.5,39.5 C 103.605,42.4083 104.605,45.7417 104.5,49.5C 104.517,51.5648 104.85,53.5648 105.5,55.5C 103.112,54.7813 101.612,53.1146 101,50.5C 99.0448,49.5467 97.3782,48.2134 96,46.5C 97.1009,44.2076 96.2676,42.7076 93.5,42C 93.8333,41.6667 94.1667,41.3333 94.5,41C 92.1873,40.338 89.854,39.838 87.5,39.5C 87.5,38.5 87.5,37.5 87.5,36.5C 85.1732,36.3354 83.0065,35.6687 81,34.5C 80.6667,34.8333 80.3333,35.1667 80,35.5C 75.6816,32.831 71.3482,30.831 67,29.5C 64.3958,29.6918 61.8958,30.0252 59.5,30.5C 55.6019,29.8263 51.6019,29.3263 47.5,29C 49.0302,27.8797 50.6968,27.0464 52.5,26.5C 54.2424,26.3482 56.0757,26.3482 58,26.5C 58.6667,25.8333 59.3333,25.1667 60,24.5C 63.955,24.9953 67.6217,26.3286 71,28.5C 72.1475,27.5419 73.1475,27.8753 74,29.5C 82.2877,29.1578 89.4544,31.9912 95.5,38C 97.636,39.1792 99.636,39.6792 101.5,39.5 Z"/></g>
<g><path style="opacity:0.408" fill="#683a60" d="M 2.5,31.5 C 2.5,31.8333 2.5,32.1667 2.5,32.5C 0.843965,38.3638 0.177299,44.3638 0.5,50.5C 0.166667,50.5 -0.166667,50.5 -0.5,50.5C -0.5,45.8333 -0.5,41.1667 -0.5,36.5C 0.687286,34.9275 1.68729,33.2608 2.5,31.5 Z"/></g>
<g><path style="opacity:1" fill="#f156d0" d="M 21.5,31.5 C 23.1667,31.5 24.8333,31.5 26.5,31.5C 25.8902,32.391 25.5569,33.391 25.5,34.5C 22.6068,35.6306 20.6068,37.6306 19.5,40.5C 14.8284,39.447 12.3284,41.447 12,46.5C 10.8289,47.8932 9.32891,48.7265 7.5,49C 7.78449,50.9562 7.78449,53.1229 7.5,55.5C 6.60305,56.5981 5.76971,56.5981 5,55.5C 4.31635,57.4789 4.81635,59.1456 6.5,60.5C 5.46471,62.1284 5.46471,63.795 6.5,65.5C 2.95087,61.1993 0.950874,56.1993 0.5,50.5C 0.177299,44.3638 0.843965,38.3638 2.5,32.5C 3.4959,32.4142 4.32924,32.7476 5,33.5C 6.77865,28.2318 8.44531,28.2318 10,33.5C 10.6389,30.7723 11.8056,30.2723 13.5,32C 11.0259,34.4277 11.5259,34.9277 15,33.5C 15.3076,34.3081 15.8076,34.9747 16.5,35.5C 18.917,35.0057 20.5836,33.6723 21.5,31.5 Z"/></g>
<g><path style="opacity:1" fill="#f74565" d="M 101.5,63.5 C 100.055,65.0627 98.3885,66.396 96.5,67.5C 94.8546,64.8881 93.1879,62.2215 91.5,59.5C 92.0253,58.8076 92.6919,58.3076 93.5,58C 92.2396,56.887 91.073,56.7203 90,57.5C 89.5172,56.552 89.3505,55.552 89.5,54.5C 85.2808,53.4516 82.4475,50.7849 81,46.5C 80.4387,47.0219 79.772,47.3552 79,47.5C 76.3925,45.1782 73.5592,44.3448 70.5,45C 71.4506,44.2825 71.6172,43.4491 71,42.5C 68.9891,43.7172 66.9891,43.3839 65,41.5C 63.984,42.6341 63.3173,42.3008 63,40.5C 61.6043,42.5268 59.9376,42.8602 58,41.5C 56.8403,43.797 55.8403,43.4637 55,40.5C 54.5172,41.448 54.3505,42.448 54.5,43.5C 52.7988,43.9662 51.2988,43.9662 50,43.5C 47.0437,46.2272 43.5437,47.7272 39.5,48C 37.8447,50.5074 37.0114,53.3408 37,56.5C 36.1482,57.5707 35.3149,58.5707 34.5,59.5C 35.2116,53.6553 36.7116,47.9886 39,42.5C 42.3641,39.7951 45.6974,37.1284 49,34.5C 52.3595,35.2914 55.5262,35.2914 58.5,34.5C 59.8249,33.0474 60.6582,33.3808 61,35.5C 61.3076,34.6919 61.8076,34.0253 62.5,33.5C 65.4915,34.6131 68.3249,35.9464 71,37.5C 71.414,37.0426 71.914,36.7093 72.5,36.5C 74.1697,37.8486 75.8364,39.0152 77.5,40C 79.1124,40.7203 80.6124,40.5536 82,39.5C 84.6262,43.9605 88.1262,47.6271 92.5,50.5C 95.558,54.8745 98.558,59.2078 101.5,63.5 Z"/></g>
<g><path style="opacity:1" fill="#f62c49" d="M 96.5,67.5 C 96.5,67.8333 96.5,68.1667 96.5,68.5C 95.1667,69.1667 93.8333,69.8333 92.5,70.5C 91.6193,68.6964 90.286,67.1964 88.5,66C 85.6236,66.2567 82.957,65.2567 80.5,63C 81.9023,61.6575 81.5689,60.8242 79.5,60.5C 77.6128,62.1329 76.1128,61.7996 75,59.5C 73.9125,61.9316 73.4125,61.5983 73.5,58.5C 71.7988,58.0338 70.2988,58.0338 69,58.5C 68.6924,57.6919 68.1924,57.0253 67.5,56.5C 66.04,58.4224 64.3733,59.0891 62.5,58.5C 61.8076,57.9747 61.3076,57.3081 61,56.5C 59.2077,58.7075 56.8744,60.0408 54,60.5C 53.5774,59.0439 52.7441,58.5439 51.5,59C 51.8333,59.3333 52.1667,59.6667 52.5,60C 49.4339,61.2061 46.9339,63.0394 45,65.5C 44.6667,65.1667 44.3333,64.8333 44,64.5C 42.0107,66.3241 40.1774,68.3241 38.5,70.5C 37.7868,72.7759 37.2868,75.1093 37,77.5C 36.3333,78.8333 35.6667,78.8333 35,77.5C 33.38,80.8932 31.88,84.2265 30.5,87.5C 30.448,85.0971 30.7814,82.7638 31.5,80.5C 32.404,79.791 32.7373,78.791 32.5,77.5C 33.4614,75.7354 33.7947,73.7354 33.5,71.5C 34.4682,69.3926 34.8016,67.0593 34.5,64.5C 34.5,62.8333 34.5,61.1667 34.5,59.5C 35.3149,58.5707 36.1482,57.5707 37,56.5C 37.0114,53.3408 37.8447,50.5074 39.5,48C 43.5437,47.7272 47.0437,46.2272 50,43.5C 51.2988,43.9662 52.7988,43.9662 54.5,43.5C 54.3505,42.448 54.5172,41.448 55,40.5C 55.8403,43.4637 56.8403,43.797 58,41.5C 59.9376,42.8602 61.6043,42.5268 63,40.5C 63.3173,42.3008 63.984,42.6341 65,41.5C 66.9891,43.3839 68.9891,43.7172 71,42.5C 71.6172,43.4491 71.4506,44.2825 70.5,45C 73.5592,44.3448 76.3925,45.1782 79,47.5C 79.772,47.3552 80.4387,47.0219 81,46.5C 82.4475,50.7849 85.2808,53.4516 89.5,54.5C 89.3505,55.552 89.5172,56.552 90,57.5C 91.073,56.7203 92.2396,56.887 93.5,58C 92.6919,58.3076 92.0253,58.8076 91.5,59.5C 93.1879,62.2215 94.8546,64.8881 96.5,67.5 Z"/></g>
<g><path style="opacity:1" fill="#f75e7f" d="M 59.5,30.5 C 61.8958,30.0252 64.3958,29.6918 67,29.5C 71.3482,30.831 75.6816,32.831 80,35.5C 80.3333,35.1667 80.6667,34.8333 81,34.5C 83.0065,35.6687 85.1732,36.3354 87.5,36.5C 87.5,37.5 87.5,38.5 87.5,39.5C 89.854,39.838 92.1873,40.338 94.5,41C 94.1667,41.3333 93.8333,41.6667 93.5,42C 96.2676,42.7076 97.1009,44.2076 96,46.5C 97.3782,48.2134 99.0448,49.5467 101,50.5C 101.612,53.1146 103.112,54.7813 105.5,55.5C 105.216,57.4147 105.549,59.0813 106.5,60.5C 106.5,60.8333 106.5,61.1667 106.5,61.5C 104.847,61.6596 103.514,62.3263 102.5,63.5C 102.167,63.5 101.833,63.5 101.5,63.5C 98.558,59.2078 95.558,54.8745 92.5,50.5C 88.1262,47.6271 84.6262,43.9605 82,39.5C 80.6124,40.5536 79.1124,40.7203 77.5,40C 75.8364,39.0152 74.1697,37.8486 72.5,36.5C 71.914,36.7093 71.414,37.0426 71,37.5C 68.3249,35.9464 65.4915,34.6131 62.5,33.5C 61.8076,34.0253 61.3076,34.6919 61,35.5C 60.6582,33.3808 59.8249,33.0474 58.5,34.5C 58.1583,33.6618 57.4916,33.3284 56.5,33.5C 57.172,32.7326 58.0053,32.0659 59,31.5C 61.4009,32.6023 63.9009,32.769 66.5,32C 64.1341,31.5604 61.8008,31.0604 59.5,30.5 Z"/></g>
<g><path style="opacity:1" fill="#f73574" d="M 56.5,33.5 C 57.4916,33.3284 58.1583,33.6618 58.5,34.5C 55.5262,35.2914 52.3595,35.2914 49,34.5C 45.6974,37.1284 42.3641,39.7951 39,42.5C 36.7116,47.9886 35.2116,53.6553 34.5,59.5C 34.5,61.1667 34.5,62.8333 34.5,64.5C 32.1327,61.32 31.1327,57.6533 31.5,53.5C 31.838,47.8378 33.1713,42.5045 35.5,37.5C 37.2912,36.5168 38.7912,35.1835 40,33.5C 45.4611,32.6964 50.9611,32.6964 56.5,33.5 Z"/></g>
<g><path style="opacity:1" fill="#f7399e" d="M 31.5,27.5 C 32.8333,28.5 34.1667,29.5 35.5,30.5C 33.4453,32.5549 31.7787,34.8883 30.5,37.5C 30.0127,40.4934 28.6794,43.1601 26.5,45.5C 27.2497,48.0446 26.9164,50.5446 25.5,53C 28.4739,57.0535 30.4739,61.5535 31.5,66.5C 26.072,62.3094 24.072,56.8094 25.5,50C 24.6422,48.43 23.9755,46.7633 23.5,45C 25.3547,41.5553 26.0214,38.0553 25.5,34.5C 25.5569,33.391 25.8902,32.391 26.5,31.5C 28.4799,30.5161 30.1466,29.1827 31.5,27.5 Z"/></g>
<g><path style="opacity:0.757" fill="#7b6033" d="M 148.5,54.5 C 146.901,54.7678 145.568,54.4345 144.5,53.5C 144.435,53.0618 144.601,52.7284 145,52.5C 146.302,53.0848 147.469,53.7515 148.5,54.5 Z"/></g>
<g><path style="opacity:0.247" fill="#5f3c44" d="M 104.5,49.5 C 105.865,52.7356 106.865,56.0689 107.5,59.5C 107.5,59.8333 107.5,60.1667 107.5,60.5C 107.167,60.5 106.833,60.5 106.5,60.5C 105.549,59.0813 105.216,57.4147 105.5,55.5C 104.85,53.5648 104.517,51.5648 104.5,49.5 Z"/></g>
<g><path style="opacity:1" fill="#f824ab" d="M 25.5,34.5 C 26.0214,38.0553 25.3547,41.5553 23.5,45C 23.9755,46.7633 24.6422,48.43 25.5,50C 24.072,56.8094 26.072,62.3094 31.5,66.5C 33.256,67.5521 33.9227,69.2188 33.5,71.5C 33.7947,73.7354 33.4614,75.7354 32.5,77.5C 32.6495,76.448 32.4828,75.448 32,74.5C 26.4024,71.8682 22.0691,67.8682 19,62.5C 18.2228,59.5706 18.3895,56.7372 19.5,54C 18.8333,53.6667 18.1667,53.3333 17.5,53C 18.3466,48.895 19.0132,44.7283 19.5,40.5C 20.6068,37.6306 22.6068,35.6306 25.5,34.5 Z"/></g>
<g><path style="opacity:1" fill="#f72a8b" d="M 35.5,37.5 C 33.1713,42.5045 31.838,47.8378 31.5,53.5C 31.1327,57.6533 32.1327,61.32 34.5,64.5C 34.8016,67.0593 34.4682,69.3926 33.5,71.5C 33.9227,69.2188 33.256,67.5521 31.5,66.5C 30.4739,61.5535 28.4739,57.0535 25.5,53C 26.9164,50.5446 27.2497,48.0446 26.5,45.5C 28.6794,43.1601 30.0127,40.4934 30.5,37.5C 32.36,36.9285 34.0267,36.9285 35.5,37.5 Z"/></g>
<g><path style="opacity:1" fill="#f72935" d="M 92.5,70.5 C 91.5,71.8333 90.5,73.1667 89.5,74.5C 87.5,76.1667 85.5,77.8333 83.5,79.5C 82.4797,78.0462 81.313,77.7129 80,78.5C 79.6824,76.9391 78.8491,75.7724 77.5,75C 60.5829,68.7014 46.0829,72.868 34,87.5C 33.1841,88.8228 32.0174,89.4894 30.5,89.5C 30.5,89.1667 30.5,88.8333 30.5,88.5C 30.5,88.1667 30.5,87.8333 30.5,87.5C 31.88,84.2265 33.38,80.8932 35,77.5C 35.6667,78.8333 36.3333,78.8333 37,77.5C 37.2868,75.1093 37.7868,72.7759 38.5,70.5C 40.1774,68.3241 42.0107,66.3241 44,64.5C 44.3333,64.8333 44.6667,65.1667 45,65.5C 46.9339,63.0394 49.4339,61.2061 52.5,60C 52.1667,59.6667 51.8333,59.3333 51.5,59C 52.7441,58.5439 53.5774,59.0439 54,60.5C 56.8744,60.0408 59.2077,58.7075 61,56.5C 61.3076,57.3081 61.8076,57.9747 62.5,58.5C 64.3733,59.0891 66.04,58.4224 67.5,56.5C 68.1924,57.0253 68.6924,57.6919 69,58.5C 70.2988,58.0338 71.7988,58.0338 73.5,58.5C 73.4125,61.5983 73.9125,61.9316 75,59.5C 76.1128,61.7996 77.6128,62.1329 79.5,60.5C 81.5689,60.8242 81.9023,61.6575 80.5,63C 82.957,65.2567 85.6236,66.2567 88.5,66C 90.286,67.1964 91.6193,68.6964 92.5,70.5 Z"/></g>
<g><path style="opacity:1" fill="#edae37" d="M 144.5,53.5 C 145.568,54.4345 146.901,54.7678 148.5,54.5C 154.423,55.1382 159.756,57.1382 164.5,60.5C 165.421,62.2687 166.588,63.9354 168,65.5C 169.558,64.6548 170.558,65.3215 171,67.5C 171.383,66.944 171.883,66.6107 172.5,66.5C 176.771,69.1009 180.437,72.4342 183.5,76.5C 183.427,78.0269 184.094,79.0269 185.5,79.5C 187.326,81.1475 188.66,83.1475 189.5,85.5C 189.427,87.0269 190.094,88.0269 191.5,88.5C 192.537,89.9303 193.204,91.597 193.5,93.5C 190.885,91.6212 188.719,89.2879 187,86.5C 186.667,86.8333 186.333,87.1667 186,87.5C 184.617,83.1346 182.784,79.1346 180.5,75.5C 177.434,73.6274 174.434,71.4607 171.5,69C 167.942,67.0537 164.275,65.3871 160.5,64C 161.696,63.3457 161.696,62.8457 160.5,62.5C 157.315,64.037 154.648,63.3704 152.5,60.5C 151.284,61.0016 150.117,61.3349 149,61.5C 147.806,60.5697 146.473,59.9031 145,59.5C 141.843,60.2015 138.843,61.2015 136,62.5C 134.774,62.3552 133.607,62.0219 132.5,61.5C 128.148,64.368 123.981,66.7014 120,68.5C 118.869,67.6647 118.036,67.6647 117.5,68.5C 116.027,67.928 114.693,67.0946 113.5,66C 114.167,65.6667 114.833,65.3333 115.5,65C 113.833,64 112.167,63 110.5,62C 111.308,61.6924 111.975,61.1924 112.5,60.5C 110.905,59.5661 109.239,59.5661 107.5,60.5C 107.5,60.1667 107.5,59.8333 107.5,59.5C 119.098,52.7941 131.431,50.7941 144.5,53.5 Z"/></g>
<g><path style="opacity:1" fill="#bd8c39" d="M 164.5,60.5 C 167.563,62.0252 170.23,64.0252 172.5,66.5C 171.883,66.6107 171.383,66.944 171,67.5C 170.558,65.3215 169.558,64.6548 168,65.5C 166.588,63.9354 165.421,62.2687 164.5,60.5 Z"/></g>
<g><path style="opacity:1" fill="#f727be" d="M 19.5,40.5 C 19.0132,44.7283 18.3466,48.895 17.5,53C 18.1667,53.3333 18.8333,53.6667 19.5,54C 18.3895,56.7372 18.2228,59.5706 19,62.5C 22.0691,67.8682 26.4024,71.8682 32,74.5C 32.4828,75.448 32.6495,76.448 32.5,77.5C 27.4091,77.8653 23.2424,76.1987 20,72.5C 19.6667,72.8333 19.3333,73.1667 19,73.5C 17.3355,68.1603 14.6689,63.4937 11,59.5C 9.81732,60.731 8.65066,60.731 7.5,59.5C 8.36288,58.2736 8.36288,56.9403 7.5,55.5C 7.78449,53.1229 7.78449,50.9562 7.5,49C 9.32891,48.7265 10.8289,47.8932 12,46.5C 12.3284,41.447 14.8284,39.447 19.5,40.5 Z"/></g>
<g><path style="opacity:1" fill="#e424c2" d="M 7.5,55.5 C 8.36288,56.9403 8.36288,58.2736 7.5,59.5C 8.65066,60.731 9.81732,60.731 11,59.5C 14.6689,63.4937 17.3355,68.1603 19,73.5C 19.3333,73.1667 19.6667,72.8333 20,72.5C 23.2424,76.1987 27.4091,77.8653 32.5,77.5C 32.7373,78.791 32.404,79.791 31.5,80.5C 20.4462,79.8151 12.1129,74.8151 6.5,65.5C 5.46471,63.795 5.46471,62.1284 6.5,60.5C 4.81635,59.1456 4.31635,57.4789 5,55.5C 5.76971,56.5981 6.60305,56.5981 7.5,55.5 Z"/></g>
<g><path style="opacity:1" fill="#f8bd2d" d="M 193.5,93.5 C 193.054,96.0101 193.72,98.0101 195.5,99.5C 195.41,102.152 196.076,104.485 197.5,106.5C 199,109.456 199.334,112.456 198.5,115.5C 197.802,113.333 196.469,111.5 194.5,110C 194.833,109.667 195.167,109.333 195.5,109C 194.154,105.136 192.654,101.302 191,97.5C 189.064,94.897 186.564,93.0637 183.5,92C 182.386,90.4301 181.053,89.0968 179.5,88C 179.833,87.6667 180.167,87.3333 180.5,87C 178.246,86.3763 176.579,85.043 175.5,83C 173.35,81.5886 171.016,80.7553 168.5,80.5C 168.688,78.8967 168.188,77.5634 167,76.5C 165.249,77.1737 163.583,77.507 162,77.5C 159.429,74.6532 156.429,73.9865 153,75.5C 151.125,74.2576 149.291,72.9242 147.5,71.5C 146.719,70.2713 146.219,68.938 146,67.5C 145,68.8333 144,68.8333 143,67.5C 142.683,69.3008 142.016,69.6341 141,68.5C 138.716,69.6903 136.549,71.0236 134.5,72.5C 131.684,71.8562 129.018,71.5228 126.5,71.5C 124.456,73.3555 122.289,74.0222 120,73.5C 118.108,72.3826 117.275,70.7159 117.5,68.5C 118.036,67.6647 118.869,67.6647 120,68.5C 123.981,66.7014 128.148,64.368 132.5,61.5C 133.607,62.0219 134.774,62.3552 136,62.5C 138.843,61.2015 141.843,60.2015 145,59.5C 146.473,59.9031 147.806,60.5697 149,61.5C 150.117,61.3349 151.284,61.0016 152.5,60.5C 154.648,63.3704 157.315,64.037 160.5,62.5C 161.696,62.8457 161.696,63.3457 160.5,64C 164.275,65.3871 167.942,67.0537 171.5,69C 174.434,71.4607 177.434,73.6274 180.5,75.5C 182.784,79.1346 184.617,83.1346 186,87.5C 186.333,87.1667 186.667,86.8333 187,86.5C 188.719,89.2879 190.885,91.6212 193.5,93.5 Z"/></g>
<g><path style="opacity:1" fill="#faa403" d="M 106.5,61.5 C 107.452,62.452 108.452,63.452 109.5,64.5C 107.974,70.4727 110.14,75.1394 116,78.5C 117.245,78.5385 118.578,78.2052 120,77.5C 123.51,78.9838 127.176,79.9838 131,80.5C 132,80.1667 133,79.8333 134,79.5C 135.608,81.0996 137.441,82.433 139.5,83.5C 140.641,84.4255 140.641,85.2588 139.5,86C 140.833,86.3333 142.167,86.6667 143.5,87C 140.833,87.6667 140.833,88.3333 143.5,89C 139.5,90.3333 139.5,91.6667 143.5,93C 142.333,93.5 141.5,94.3333 141,95.5C 140.586,95.0426 140.086,94.7093 139.5,94.5C 137.385,98.7707 134.719,102.604 131.5,106C 132.167,106.333 132.833,106.667 133.5,107C 131.939,107.318 130.772,108.151 130,109.5C 128.011,113.253 127.178,117.253 127.5,121.5C 127.768,123.099 127.434,124.432 126.5,125.5C 126.5,124.5 126.5,123.5 126.5,122.5C 125.951,120.099 125.118,117.765 124,115.5C 123.667,115.833 123.333,116.167 123,116.5C 122.956,114.356 121.789,112.523 119.5,111C 121.891,109.691 121.891,108.691 119.5,108C 119.833,107 120.167,106 120.5,105C 118.285,103.057 118.285,101.391 120.5,100C 119.167,99.3333 117.833,98.6667 116.5,98C 117.833,97.3333 117.833,96.6667 116.5,96C 118.795,95.0164 118.461,94.1831 115.5,93.5C 113.471,94.6293 113.137,94.1293 114.5,92C 110.054,88.2892 106.387,83.9559 103.5,79C 103.957,78.586 104.291,78.086 104.5,77.5C 103.397,77.0024 102.397,76.6691 101.5,76.5C 102.025,75.8076 102.692,75.3076 103.5,75C 102.106,74.044 101.439,72.7106 101.5,71C 102.159,68.5379 102.493,66.0379 102.5,63.5C 103.514,62.3263 104.847,61.6596 106.5,61.5 Z"/></g>
<g><path style="opacity:1" fill="#fbb10a" d="M 117.5,68.5 C 117.275,70.7159 118.108,72.3826 120,73.5C 122.289,74.0222 124.456,73.3555 126.5,71.5C 129.018,71.5228 131.684,71.8562 134.5,72.5C 134.047,73.4584 133.381,74.2917 132.5,75C 133.76,76.113 134.927,76.2797 136,75.5C 136.918,77.6324 138.251,78.299 140,77.5C 140.317,79.3008 140.984,79.6341 142,78.5C 144.179,79.3961 146.012,80.7294 147.5,82.5C 148.324,80.2524 149.324,80.0858 150.5,82C 150.043,82.414 149.709,82.914 149.5,83.5C 150.729,84.2811 152.062,84.7811 153.5,85C 150.282,90.1241 151.116,91.2908 156,88.5C 157.76,91.155 157.26,92.4883 154.5,92.5C 155.025,93.1924 155.692,93.6924 156.5,94C 153.79,95.7468 150.79,96.7468 147.5,97C 148.624,97.2492 149.624,97.7492 150.5,98.5C 148.293,100.683 145.626,102.016 142.5,102.5C 138.635,105.538 134.969,108.705 131.5,112C 131.957,112.414 132.291,112.914 132.5,113.5C 130.34,115.965 128.673,118.632 127.5,121.5C 127.178,117.253 128.011,113.253 130,109.5C 130.772,108.151 131.939,107.318 133.5,107C 132.833,106.667 132.167,106.333 131.5,106C 134.719,102.604 137.385,98.7707 139.5,94.5C 140.086,94.7093 140.586,95.0426 141,95.5C 141.5,94.3333 142.333,93.5 143.5,93C 139.5,91.6667 139.5,90.3333 143.5,89C 140.833,88.3333 140.833,87.6667 143.5,87C 142.167,86.6667 140.833,86.3333 139.5,86C 140.641,85.2588 140.641,84.4255 139.5,83.5C 137.441,82.433 135.608,81.0996 134,79.5C 133,79.8333 132,80.1667 131,80.5C 127.176,79.9838 123.51,78.9838 120,77.5C 118.578,78.2052 117.245,78.5385 116,78.5C 110.14,75.1394 107.974,70.4727 109.5,64.5C 108.452,63.452 107.452,62.452 106.5,61.5C 106.5,61.1667 106.5,60.8333 106.5,60.5C 106.833,60.5 107.167,60.5 107.5,60.5C 109.239,59.5661 110.905,59.5661 112.5,60.5C 111.975,61.1924 111.308,61.6924 110.5,62C 112.167,63 113.833,64 115.5,65C 114.833,65.3333 114.167,65.6667 113.5,66C 114.693,67.0946 116.027,67.928 117.5,68.5 Z"/></g>
<g><path style="opacity:0.388" fill="#67532f" d="M 183.5,76.5 C 184.906,76.9731 185.573,77.9731 185.5,79.5C 184.094,79.0269 183.427,78.0269 183.5,76.5 Z"/></g>
<g><path style="opacity:1" fill="#f72c1e" d="M 83.5,79.5 C 80.8581,83.1484 78.1914,86.8151 75.5,90.5C 74.8333,90.8333 74.1667,91.1667 73.5,91.5C 71.9705,90.9332 70.4705,90.2666 69,89.5C 68.6924,90.3081 68.1924,90.9747 67.5,91.5C 65.7545,89.2507 63.5879,87.5841 61,86.5C 60.0255,88.8776 59.3589,88.5443 59,85.5C 57.4325,87.2372 55.4325,88.2372 53,88.5C 50.5493,89.1306 47.8826,89.1306 45,88.5C 42.8669,89.2551 41.2002,90.5884 40,92.5C 39.6667,92.1667 39.3333,91.8333 39,91.5C 36.3756,95.1307 33.5423,98.464 30.5,101.5C 30.4142,100.504 30.7476,99.6708 31.5,99C 30.2559,98.5439 29.4226,99.0439 29,100.5C 28.51,99.2068 28.3433,97.8734 28.5,96.5C 29.6118,94.4006 30.2785,92.0673 30.5,89.5C 32.0174,89.4894 33.1841,88.8228 34,87.5C 46.0829,72.868 60.5829,68.7014 77.5,75C 78.8491,75.7724 79.6824,76.9391 80,78.5C 81.313,77.7129 82.4797,78.0462 83.5,79.5 Z"/></g>
<g><path style="opacity:0.18" fill="#59492d" d="M 189.5,85.5 C 190.906,85.9731 191.573,86.9731 191.5,88.5C 190.094,88.0269 189.427,87.0269 189.5,85.5 Z"/></g>
<g><path style="opacity:0.722" fill="#712d29" d="M 30.5,88.5 C 30.5,88.8333 30.5,89.1667 30.5,89.5C 30.2785,92.0673 29.6118,94.4006 28.5,96.5C 28.2938,93.5049 28.9605,90.8383 30.5,88.5 Z"/></g>
<g><path style="opacity:1" fill="#f7bc0d" d="M 198.5,115.5 C 199.817,123.121 199.484,130.788 197.5,138.5C 196.539,140.265 196.205,142.265 196.5,144.5C 196.425,147.206 196.092,149.873 195.5,152.5C 194.833,151.833 194.167,151.167 193.5,150.5C 193.443,149.391 193.11,148.391 192.5,147.5C 192.469,144.041 191.802,140.708 190.5,137.5C 190.833,136.833 191.167,136.167 191.5,135.5C 190.028,132.851 189.028,130.018 188.5,127C 188.833,126 189.167,125 189.5,124C 187.854,122.445 187.521,120.779 188.5,119C 187.891,116.942 186.891,116.109 185.5,116.5C 185.977,115.522 186.643,114.689 187.5,114C 186.551,113.383 185.718,113.549 185,114.5C 184.654,112.782 184.154,111.115 183.5,109.5C 184.962,109.935 185.962,109.102 186.5,107C 184.976,105.806 183.81,104.306 183,102.5C 182.667,102.833 182.333,103.167 182,103.5C 182.271,100.484 181.104,97.8175 178.5,95.5C 177.5,95.8333 176.833,96.5 176.5,97.5C 178.833,98.9538 179.5,100.787 178.5,103C 178.759,104.261 179.426,105.261 180.5,106C 179.809,107.067 179.309,108.234 179,109.5C 178.692,108.692 178.192,108.025 177.5,107.5C 175.65,108.242 174.984,109.242 175.5,110.5C 174.455,108.599 173.122,106.933 171.5,105.5C 170.522,105.977 169.689,106.643 169,107.5C 168.667,107.167 168.333,106.833 168,106.5C 167.804,108.286 166.971,109.619 165.5,110.5C 161.417,108.085 157.25,108.085 153,110.5C 152.549,108.071 151.715,107.904 150.5,110C 150.833,110.333 151.167,110.667 151.5,111C 150.451,111.492 149.451,111.326 148.5,110.5C 147.117,113.076 146.283,112.742 146,109.5C 145.047,111.455 143.713,113.122 142,114.5C 141.667,114.167 141.333,113.833 141,113.5C 139.103,115.399 136.936,116.899 134.5,118C 132.62,121.989 129.953,125.155 126.5,127.5C 126.5,126.833 126.5,126.167 126.5,125.5C 127.434,124.432 127.768,123.099 127.5,121.5C 128.673,118.632 130.34,115.965 132.5,113.5C 132.291,112.914 131.957,112.414 131.5,112C 134.969,108.705 138.635,105.538 142.5,102.5C 145.626,102.016 148.293,100.683 150.5,98.5C 149.624,97.7492 148.624,97.2492 147.5,97C 150.79,96.7468 153.79,95.7468 156.5,94C 155.692,93.6924 155.025,93.1924 154.5,92.5C 157.26,92.4883 157.76,91.155 156,88.5C 151.116,91.2908 150.282,90.1241 153.5,85C 152.062,84.7811 150.729,84.2811 149.5,83.5C 149.709,82.914 150.043,82.414 150.5,82C 149.324,80.0858 148.324,80.2524 147.5,82.5C 146.012,80.7294 144.179,79.3961 142,78.5C 140.984,79.6341 140.317,79.3008 140,77.5C 138.251,78.299 136.918,77.6324 136,75.5C 134.927,76.2797 133.76,76.113 132.5,75C 133.381,74.2917 134.047,73.4584 134.5,72.5C 136.549,71.0236 138.716,69.6903 141,68.5C 142.016,69.6341 142.683,69.3008 143,67.5C 144,68.8333 145,68.8333 146,67.5C 146.219,68.938 146.719,70.2713 147.5,71.5C 149.291,72.9242 151.125,74.2576 153,75.5C 156.429,73.9865 159.429,74.6532 162,77.5C 163.583,77.507 165.249,77.1737 167,76.5C 168.188,77.5634 168.688,78.8967 168.5,80.5C 171.016,80.7553 173.35,81.5886 175.5,83C 176.579,85.043 178.246,86.3763 180.5,87C 180.167,87.3333 179.833,87.6667 179.5,88C 181.053,89.0968 182.386,90.4301 183.5,92C 186.564,93.0637 189.064,94.897 191,97.5C 192.654,101.302 194.154,105.136 195.5,109C 195.167,109.333 194.833,109.667 194.5,110C 196.469,111.5 197.802,113.333 198.5,115.5 Z"/></g>
<g><path style="opacity:1" fill="#fbc501" d="M 192.5,147.5 C 191.527,145.861 190.194,144.527 188.5,143.5C 188.167,142.5 187.5,141.833 186.5,141.5C 184.715,137.751 182.881,134.084 181,130.5C 175.687,126.613 170.021,123.279 164,120.5C 162.984,121.634 162.317,121.301 162,119.5C 161.667,120.167 161.333,120.833 161,121.5C 160.259,120.359 159.425,120.359 158.5,121.5C 157.808,120.975 157.308,120.308 157,119.5C 156.692,120.308 156.192,120.975 155.5,121.5C 153.071,121.579 150.571,121.245 148,120.5C 147.626,121.416 147.126,122.25 146.5,123C 131.977,127.272 124.143,137.438 123,153.5C 122.617,154.056 122.117,154.389 121.5,154.5C 121.5,153.167 121.5,151.833 121.5,150.5C 121.672,149.508 121.338,148.842 120.5,148.5C 122.417,145.509 123.417,142.176 123.5,138.5C 125.118,135.829 125.785,132.829 125.5,129.5C 126.338,129.158 126.672,128.492 126.5,127.5C 129.953,125.155 132.62,121.989 134.5,118C 136.936,116.899 139.103,115.399 141,113.5C 141.333,113.833 141.667,114.167 142,114.5C 143.713,113.122 145.047,111.455 146,109.5C 146.283,112.742 147.117,113.076 148.5,110.5C 149.451,111.326 150.451,111.492 151.5,111C 151.167,110.667 150.833,110.333 150.5,110C 151.715,107.904 152.549,108.071 153,110.5C 157.25,108.085 161.417,108.085 165.5,110.5C 166.971,109.619 167.804,108.286 168,106.5C 168.333,106.833 168.667,107.167 169,107.5C 169.689,106.643 170.522,105.977 171.5,105.5C 173.122,106.933 174.455,108.599 175.5,110.5C 174.984,109.242 175.65,108.242 177.5,107.5C 178.192,108.025 178.692,108.692 179,109.5C 179.309,108.234 179.809,107.067 180.5,106C 179.426,105.261 178.759,104.261 178.5,103C 179.5,100.787 178.833,98.9538 176.5,97.5C 176.833,96.5 177.5,95.8333 178.5,95.5C 181.104,97.8175 182.271,100.484 182,103.5C 182.333,103.167 182.667,102.833 183,102.5C 183.81,104.306 184.976,105.806 186.5,107C 185.962,109.102 184.962,109.935 183.5,109.5C 184.154,111.115 184.654,112.782 185,114.5C 185.718,113.549 186.551,113.383 187.5,114C 186.643,114.689 185.977,115.522 185.5,116.5C 186.891,116.109 187.891,116.942 188.5,119C 187.521,120.779 187.854,122.445 189.5,124C 189.167,125 188.833,126 188.5,127C 189.028,130.018 190.028,132.851 191.5,135.5C 191.167,136.167 190.833,136.833 190.5,137.5C 191.802,140.708 192.469,144.041 192.5,147.5 Z"/></g>
<g><path style="opacity:1" fill="#fa8b02" d="M 101.5,63.5 C 101.833,63.5 102.167,63.5 102.5,63.5C 102.493,66.0379 102.159,68.5379 101.5,71C 101.439,72.7106 102.106,74.044 103.5,75C 102.692,75.3076 102.025,75.8076 101.5,76.5C 102.397,76.6691 103.397,77.0024 104.5,77.5C 104.291,78.086 103.957,78.586 103.5,79C 106.387,83.9559 110.054,88.2892 114.5,92C 113.137,94.1293 113.471,94.6293 115.5,93.5C 118.461,94.1831 118.795,95.0164 116.5,96C 117.833,96.6667 117.833,97.3333 116.5,98C 117.833,98.6667 119.167,99.3333 120.5,100C 118.285,101.391 118.285,103.057 120.5,105C 120.167,106 119.833,107 119.5,108C 121.891,108.691 121.891,109.691 119.5,111C 121.789,112.523 122.956,114.356 123,116.5C 123.333,116.167 123.667,115.833 124,115.5C 125.118,117.765 125.951,120.099 126.5,122.5C 125.06,121.637 123.726,121.637 122.5,122.5C 121.304,122.154 121.304,121.654 122.5,121C 121.167,120.667 119.833,120.333 118.5,120C 118.957,119.586 119.291,119.086 119.5,118.5C 118.349,117.269 117.183,117.269 116,118.5C 115.348,116.277 113.848,115.11 111.5,115C 111.833,114.667 112.167,114.333 112.5,114C 110.833,113 109.5,111.667 108.5,110C 108.833,109.667 109.167,109.333 109.5,109C 107.496,107.577 105.996,105.744 105,103.5C 104.667,103.833 104.333,104.167 104,104.5C 103.316,103.216 103.483,102.049 104.5,101C 102.224,99.9698 101.557,98.4698 102.5,96.5C 102.167,95.5 101.5,94.8333 100.5,94.5C 99.4168,90.0781 98.0834,85.7448 96.5,81.5C 96.6933,77.1134 96.6933,72.7801 96.5,68.5C 96.5,68.1667 96.5,67.8333 96.5,67.5C 98.3885,66.396 100.055,65.0627 101.5,63.5 Z"/></g>
<g><path style="opacity:1" fill="#f97603" d="M 96.5,68.5 C 96.6933,72.7801 96.6933,77.1134 96.5,81.5C 98.0834,85.7448 99.4168,90.0781 100.5,94.5C 101.5,94.8333 102.167,95.5 102.5,96.5C 101.557,98.4698 102.224,99.9698 104.5,101C 103.483,102.049 103.316,103.216 104,104.5C 104.333,104.167 104.667,103.833 105,103.5C 105.996,105.744 107.496,107.577 109.5,109C 109.167,109.333 108.833,109.667 108.5,110C 109.5,111.667 110.833,113 112.5,114C 112.167,114.333 111.833,114.667 111.5,115C 113.848,115.11 115.348,116.277 116,118.5C 117.183,117.269 118.349,117.269 119.5,118.5C 119.291,119.086 118.957,119.586 118.5,120C 119.833,120.333 121.167,120.667 122.5,121C 121.304,121.654 121.304,122.154 122.5,122.5C 123.726,121.637 125.06,121.637 126.5,122.5C 126.5,123.5 126.5,124.5 126.5,125.5C 126.5,126.167 126.5,126.833 126.5,127.5C 126.672,128.492 126.338,129.158 125.5,129.5C 125.357,125.611 123.524,124.611 120,126.5C 116.866,124.107 113.866,124.107 111,126.5C 109.437,123.956 107.937,123.956 106.5,126.5C 104.578,124.708 103.078,122.708 102,120.5C 101.667,120.833 101.333,121.167 101,121.5C 98.5,119.667 96,117.833 93.5,116C 95.8155,113.524 95.4822,111.191 92.5,109C 91.2396,107.887 90.073,107.72 89,108.5C 88.2935,106.919 87.4601,105.419 86.5,104C 87.5,102.333 88.8333,101 90.5,100C 88.9317,97.9417 87.5983,95.7751 86.5,93.5C 86.8178,92.3527 87.4844,91.5194 88.5,91C 87.5066,88.0603 87.1732,84.8937 87.5,81.5C 88.9459,79.3821 89.6126,77.0488 89.5,74.5C 90.5,73.1667 91.5,71.8333 92.5,70.5C 93.8333,69.8333 95.1667,69.1667 96.5,68.5 Z"/></g>
<g><path style="opacity:0.839" fill="#a48032" d="M 193.5,93.5 C 195.074,95.1016 195.741,97.1016 195.5,99.5C 193.72,98.0101 193.054,96.0101 193.5,93.5 Z"/></g>
<g><path style="opacity:0.675" fill="#95752d" d="M 195.5,99.5 C 196.924,101.515 197.59,103.848 197.5,106.5C 196.076,104.485 195.41,102.152 195.5,99.5 Z"/></g>
<g><path style="opacity:1" fill="#f86604" d="M 89.5,74.5 C 89.6126,77.0488 88.9459,79.3821 87.5,81.5C 87.1732,84.8937 87.5066,88.0603 88.5,91C 87.4844,91.5194 86.8178,92.3527 86.5,93.5C 87.5983,95.7751 88.9317,97.9417 90.5,100C 88.8333,101 87.5,102.333 86.5,104C 87.4601,105.419 88.2935,106.919 89,108.5C 90.073,107.72 91.2396,107.887 92.5,109C 95.4822,111.191 95.8155,113.524 93.5,116C 96,117.833 98.5,119.667 101,121.5C 101.333,121.167 101.667,120.833 102,120.5C 103.078,122.708 104.578,124.708 106.5,126.5C 107.937,123.956 109.437,123.956 111,126.5C 113.866,124.107 116.866,124.107 120,126.5C 123.524,124.611 125.357,125.611 125.5,129.5C 125.785,132.829 125.118,135.829 123.5,138.5C 121.458,135.635 120.292,135.968 120,139.5C 119.667,138.833 119.333,138.167 119,137.5C 117.445,139.146 115.779,139.479 114,138.5C 113.333,139.167 112.667,139.833 112,140.5C 111.653,138.82 110.653,137.82 109,137.5C 106.854,140.976 104.187,140.976 101,137.5C 100.411,139.863 98.9115,140.863 96.5,140.5C 97.8514,135.845 96.5181,134.511 92.5,136.5C 91.8076,135.975 91.3076,135.308 91,134.5C 89.1918,134.888 87.5252,134.888 86,134.5C 85.1078,130.495 83.1078,127.162 80,124.5C 79.6667,124.833 79.3333,125.167 79,125.5C 78.7073,123.075 77.5407,121.242 75.5,120C 78.1667,119 78.1667,118 75.5,117C 77.9119,114.965 77.2452,113.965 73.5,114C 74.1667,113.667 74.8333,113.333 75.5,113C 73.8333,112.667 72.1667,112.333 70.5,112C 70.8333,111.667 71.1667,111.333 71.5,111C 67.7741,109.957 68.1074,109.457 72.5,109.5C 71.2802,106.537 71.9468,103.87 74.5,101.5C 73.689,100.784 73.0223,99.9503 72.5,99C 73.7653,97.3437 75.0987,95.677 76.5,94C 75.6634,92.9887 75.33,91.8221 75.5,90.5C 78.1914,86.8151 80.8581,83.1484 83.5,79.5C 85.5,77.8333 87.5,76.1667 89.5,74.5 Z"/></g>
<g><path style="opacity:1" fill="#f75005" d="M 75.5,90.5 C 75.33,91.8221 75.6634,92.9887 76.5,94C 75.0987,95.677 73.7653,97.3437 72.5,99C 73.0223,99.9503 73.689,100.784 74.5,101.5C 71.9468,103.87 71.2802,106.537 72.5,109.5C 68.1074,109.457 67.7741,109.957 71.5,111C 71.1667,111.333 70.8333,111.667 70.5,112C 72.1667,112.333 73.8333,112.667 75.5,113C 74.8333,113.333 74.1667,113.667 73.5,114C 77.2452,113.965 77.9119,114.965 75.5,117C 78.1667,118 78.1667,119 75.5,120C 77.5407,121.242 78.7073,123.075 79,125.5C 79.3333,125.167 79.6667,124.833 80,124.5C 83.1078,127.162 85.1078,130.495 86,134.5C 87.5252,134.888 89.1918,134.888 91,134.5C 91.3076,135.308 91.8076,135.975 92.5,136.5C 96.5181,134.511 97.8514,135.845 96.5,140.5C 98.9115,140.863 100.411,139.863 101,137.5C 104.187,140.976 106.854,140.976 109,137.5C 110.653,137.82 111.653,138.82 112,140.5C 112.667,139.833 113.333,139.167 114,138.5C 115.779,139.479 117.445,139.146 119,137.5C 119.333,138.167 119.667,138.833 120,139.5C 120.292,135.968 121.458,135.635 123.5,138.5C 123.417,142.176 122.417,145.509 120.5,148.5C 119.833,149.833 118.833,150.833 117.5,151.5C 117.217,150.711 116.717,150.044 116,149.5C 114.912,151.69 113.746,153.023 112.5,153.5C 110.94,151.365 109.273,151.198 107.5,153C 109.929,153.451 110.096,154.285 108,155.5C 105.002,151.632 102.336,151.965 100,156.5C 99.0255,154.122 98.3589,154.456 98,157.5C 97.3333,156.833 96.6667,156.167 96,155.5C 95,156.833 94,156.833 93,155.5C 92.6667,156.5 92.3333,157.5 92,158.5C 90.4705,157.417 88.9705,156.417 87.5,155.5C 88.8368,155.26 90.5035,154.76 92.5,154C 88.5508,153.073 85.0508,153.906 82,156.5C 81.6667,155.833 81.3333,155.167 81,154.5C 79.6124,155.554 78.1124,155.72 76.5,155C 76.4874,152.497 75.654,149.997 74,147.5C 71.6262,150.288 70.2929,149.954 70,146.5C 69,147.833 68,149.167 67,150.5C 66.5,149.333 65.6667,148.5 64.5,148C 66.5127,146.209 66.5127,144.875 64.5,144C 64.9574,143.586 65.2907,143.086 65.5,142.5C 63.7391,139.93 62.4058,137.597 61.5,135.5C 62.456,132.309 61.956,129.309 60,126.5C 59.3333,127.167 58.6667,127.833 58,128.5C 56.4735,126.542 54.9735,125.375 53.5,125C 54.7365,124.674 56.0698,123.674 57.5,122C 52.7167,120.245 52.3834,119.078 56.5,118.5C 55.8346,116.899 55.5012,115.399 55.5,114C 57.7801,113.788 59.7801,112.955 61.5,111.5C 61.7587,109.458 62.092,107.458 62.5,105.5C 66.6577,101.166 70.3243,96.4994 73.5,91.5C 74.1667,91.1667 74.8333,90.8333 75.5,90.5 Z"/></g>
<g><path style="opacity:1" fill="#fcd500" d="M 186.5,141.5 C 183.143,139.134 179.81,136.801 176.5,134.5C 173.157,132.143 169.491,130.143 165.5,128.5C 163.548,129.103 161.548,128.77 159.5,127.5C 156.833,127.5 154.167,127.5 151.5,127.5C 149.189,128.214 147.022,129.214 145,130.5C 144.667,130.167 144.333,129.833 144,129.5C 136.468,133.032 130.968,138.532 127.5,146C 128.476,148.147 128.309,150.314 127,152.5C 126.549,150.071 125.715,149.904 124.5,152C 125.232,154.363 125.232,156.863 124.5,159.5C 123.609,158.89 122.609,158.557 121.5,158.5C 121.5,157.167 121.5,155.833 121.5,154.5C 122.117,154.389 122.617,154.056 123,153.5C 124.143,137.438 131.977,127.272 146.5,123C 147.126,122.25 147.626,121.416 148,120.5C 150.571,121.245 153.071,121.579 155.5,121.5C 156.192,120.975 156.692,120.308 157,119.5C 157.308,120.308 157.808,120.975 158.5,121.5C 159.425,120.359 160.259,120.359 161,121.5C 161.333,120.833 161.667,120.167 162,119.5C 162.317,121.301 162.984,121.634 164,120.5C 170.021,123.279 175.687,126.613 181,130.5C 182.881,134.084 184.715,137.751 186.5,141.5 Z"/></g>
<g><path style="opacity:1" fill="#fde800" d="M 176.5,134.5 C 179.81,136.801 183.143,139.134 186.5,141.5C 187.5,141.833 188.167,142.5 188.5,143.5C 188.041,147.073 189.041,150.073 191.5,152.5C 191.291,153.086 190.957,153.586 190.5,154C 194.295,166.254 190.629,176.254 179.5,184C 175.049,185.65 171.216,187.483 168,189.5C 164.984,188.182 161.984,188.182 159,189.5C 152.519,188.167 146.685,185.667 141.5,182C 139.362,179.525 137.196,177.025 135,174.5C 133.213,168.417 131.047,162.584 128.5,157C 129.833,155.333 129.833,153.667 128.5,152C 129.257,150.488 130.257,149.154 131.5,148C 131.167,147.667 130.833,147.333 130.5,147C 132.096,143.138 134.429,139.805 137.5,137C 145.792,132.392 153.959,130.225 162,130.5C 166.94,131.537 171.773,132.87 176.5,134.5 Z"/></g>
<g><path style="opacity:1" fill="#cb4f36" d="M 27.5,100.5 C 27.5015,105.606 27.8348,110.44 28.5,115C 27.2596,118.749 25.9262,122.415 24.5,126C 25.0219,126.561 25.3552,127.228 25.5,128C 23.9427,135.077 23.276,142.243 23.5,149.5C 20.7139,132.892 22.0472,116.559 27.5,100.5 Z"/></g>
<g><path style="opacity:1" fill="#f34f26" d="M 28.5,96.5 C 28.3433,97.8734 28.51,99.2068 29,100.5C 29.4226,99.0439 30.2559,98.5439 31.5,99C 30.7476,99.6708 30.4142,100.504 30.5,101.5C 30.846,103.338 30.846,105.338 30.5,107.5C 31.0253,108.192 31.6919,108.692 32.5,109C 31.8387,116.586 30.0053,124.086 27,131.5C 25.8686,137.112 25.3686,142.779 25.5,148.5C 24.8333,148.833 24.1667,149.167 23.5,149.5C 23.276,142.243 23.9427,135.077 25.5,128C 25.3552,127.228 25.0219,126.561 24.5,126C 25.9262,122.415 27.2596,118.749 28.5,115C 27.8348,110.44 27.5015,105.606 27.5,100.5C 27.2322,98.901 27.5655,97.5676 28.5,96.5 Z"/></g>
<g><path style="opacity:0.667" fill="#6f5921" d="M 197.5,138.5 C 197.938,138.435 198.272,138.601 198.5,139C 197.891,140.948 197.224,142.782 196.5,144.5C 196.205,142.265 196.539,140.265 197.5,138.5 Z"/></g>
<g><path style="opacity:1" fill="#f74305" d="M 62.5,105.5 C 62.092,107.458 61.7587,109.458 61.5,111.5C 59.7801,112.955 57.7801,113.788 55.5,114C 55.5012,115.399 55.8346,116.899 56.5,118.5C 52.3834,119.078 52.7167,120.245 57.5,122C 56.0698,123.674 54.7365,124.674 53.5,125C 54.9735,125.375 56.4735,126.542 58,128.5C 58.6667,127.833 59.3333,127.167 60,126.5C 61.956,129.309 62.456,132.309 61.5,135.5C 62.4058,137.597 63.7391,139.93 65.5,142.5C 65.2907,143.086 64.9574,143.586 64.5,144C 66.5127,144.875 66.5127,146.209 64.5,148C 65.6667,148.5 66.5,149.333 67,150.5C 68,149.167 69,147.833 70,146.5C 70.2929,149.954 71.6262,150.288 74,147.5C 75.654,149.997 76.4874,152.497 76.5,155C 78.1124,155.72 79.6124,155.554 81,154.5C 81.3333,155.167 81.6667,155.833 82,156.5C 85.0508,153.906 88.5508,153.073 92.5,154C 90.5035,154.76 88.8368,155.26 87.5,155.5C 88.9705,156.417 90.4705,157.417 92,158.5C 92.3333,157.5 92.6667,156.5 93,155.5C 94,156.833 95,156.833 96,155.5C 96.6667,156.167 97.3333,156.833 98,157.5C 98.3589,154.456 99.0255,154.122 100,156.5C 102.336,151.965 105.002,151.632 108,155.5C 110.096,154.285 109.929,153.451 107.5,153C 109.273,151.198 110.94,151.365 112.5,153.5C 112.611,154.117 112.944,154.617 113.5,155C 111.075,155.293 109.242,156.459 108,158.5C 105.956,157.228 104.122,157.561 102.5,159.5C 103.248,161.416 103.248,163.416 102.5,165.5C 101.25,165.423 100.417,164.756 100,163.5C 99.2496,164.126 98.4162,164.626 97.5,165C 99.6447,165.743 99.8114,166.576 98,167.5C 94.4961,168.919 91.1627,170.585 88,172.5C 87.6174,171.944 87.1174,171.611 86.5,171.5C 84.591,169.127 82.7577,169.127 81,171.5C 79.1294,170.003 78.1294,168.003 78,165.5C 77.5814,166.672 76.9147,167.672 76,168.5C 74.7101,166.208 73.0435,164.208 71,162.5C 70.3109,163.357 69.4776,164.023 68.5,164.5C 66.5217,164.262 64.8551,162.929 63.5,160.5C 62.3044,160.846 62.3044,161.346 63.5,162C 62.8333,162.667 62.1667,162.667 61.5,162C 60.1703,160.367 59.5036,158.867 59.5,157.5C 58.0944,158.668 56.9277,158.335 56,156.5C 55.6667,157.167 55.3333,157.833 55,158.5C 55.5703,155.554 55.9036,152.554 56,149.5C 55.6667,150.833 55.3333,152.167 55,153.5C 52.0682,152.22 51.2348,150.22 52.5,147.5C 52.0233,146.522 51.3567,145.689 50.5,145C 51.1667,144.667 51.8333,144.333 52.5,144C 51.1667,143 51.1667,142 52.5,141C 51.5,140.667 50.5,140.333 49.5,140C 48.1667,139.333 48.1667,138.667 49.5,138C 48.8333,137.667 48.1667,137.333 47.5,137C 48.893,134.822 50.5596,133.822 52.5,134C 51.7471,132.513 50.9138,132.346 50,133.5C 49.3551,132.354 48.5217,131.354 47.5,130.5C 49.6323,128.605 49.9656,126.438 48.5,124C 49.2536,120.912 50.4203,120.746 52,123.5C 52.2086,121.311 51.8753,119.311 51,117.5C 52.1475,118.458 53.1475,118.125 54,116.5C 54.4922,115.451 54.3256,114.451 53.5,113.5C 56.1654,111.192 59.1654,108.526 62.5,105.5 Z"/></g>
<g><path style="opacity:1" fill="#f43807" d="M 73.5,91.5 C 70.3243,96.4994 66.6577,101.166 62.5,105.5C 59.1654,108.526 56.1654,111.192 53.5,113.5C 54.3256,114.451 54.4922,115.451 54,116.5C 53.1475,118.125 52.1475,118.458 51,117.5C 51.8753,119.311 52.2086,121.311 52,123.5C 50.4203,120.746 49.2536,120.912 48.5,124C 49.9656,126.438 49.6323,128.605 47.5,130.5C 48.5217,131.354 49.3551,132.354 50,133.5C 50.9138,132.346 51.7471,132.513 52.5,134C 50.5596,133.822 48.893,134.822 47.5,137C 48.1667,137.333 48.8333,137.667 49.5,138C 48.1667,138.667 48.1667,139.333 49.5,140C 50.5,140.333 51.5,140.667 52.5,141C 51.1667,142 51.1667,143 52.5,144C 51.8333,144.333 51.1667,144.667 50.5,145C 51.3567,145.689 52.0233,146.522 52.5,147.5C 51.2348,150.22 52.0682,152.22 55,153.5C 55.3333,152.167 55.6667,150.833 56,149.5C 55.9036,152.554 55.5703,155.554 55,158.5C 55.3333,157.833 55.6667,157.167 56,156.5C 56.9277,158.335 58.0944,158.668 59.5,157.5C 59.5036,158.867 60.1703,160.367 61.5,162C 62.1667,162.667 62.8333,162.667 63.5,162C 62.3044,161.346 62.3044,160.846 63.5,160.5C 64.8551,162.929 66.5217,164.262 68.5,164.5C 69.4776,164.023 70.3109,163.357 71,162.5C 73.0435,164.208 74.7101,166.208 76,168.5C 76.9147,167.672 77.5814,166.672 78,165.5C 78.1294,168.003 79.1294,170.003 81,171.5C 82.7577,169.127 84.591,169.127 86.5,171.5C 86.6068,173.379 86.1068,173.712 85,172.5C 84.0975,173.701 82.9308,174.535 81.5,175C 83.935,175.075 84.6016,175.908 83.5,177.5C 71.8093,183.191 59.8093,183.691 47.5,179C 44.3793,177.694 41.7126,175.86 39.5,173.5C 39.0472,172.542 38.3805,171.708 37.5,171C 38.1667,170.667 38.8333,170.333 39.5,170C 37.4732,168.121 35.1398,166.954 32.5,166.5C 31.8333,164.167 31.1667,161.833 30.5,159.5C 29.5,159.5 28.5,159.5 27.5,159.5C 27.2494,155.751 26.5828,152.085 25.5,148.5C 25.3686,142.779 25.8686,137.112 27,131.5C 30.0053,124.086 31.8387,116.586 32.5,109C 31.6919,108.692 31.0253,108.192 30.5,107.5C 30.846,105.338 30.846,103.338 30.5,101.5C 33.5423,98.464 36.3756,95.1307 39,91.5C 39.3333,91.8333 39.6667,92.1667 40,92.5C 41.2002,90.5884 42.8669,89.2551 45,88.5C 47.8826,89.1306 50.5493,89.1306 53,88.5C 55.4325,88.2372 57.4325,87.2372 59,85.5C 59.3589,88.5443 60.0255,88.8776 61,86.5C 63.5879,87.5841 65.7545,89.2507 67.5,91.5C 68.1924,90.9747 68.6924,90.3081 69,89.5C 70.4705,90.2666 71.9705,90.9332 73.5,91.5 Z"/></g>
<g><path style="opacity:1" fill="#ca3e11" d="M 117.5,151.5 C 113.783,157.55 108.783,162.217 102.5,165.5C 103.248,163.416 103.248,161.416 102.5,159.5C 104.122,157.561 105.956,157.228 108,158.5C 109.242,156.459 111.075,155.293 113.5,155C 112.944,154.617 112.611,154.117 112.5,153.5C 113.746,153.023 114.912,151.69 116,149.5C 116.717,150.044 117.217,150.711 117.5,151.5 Z"/></g>
<g><path style="opacity:0.835" fill="#7d6b1f" d="M 121.5,150.5 C 121.5,151.833 121.5,153.167 121.5,154.5C 121.5,155.833 121.5,157.167 121.5,158.5C 121.5,162.167 121.5,165.833 121.5,169.5C 119.019,163.183 119.019,156.85 121.5,150.5 Z"/></g>
<g><path style="opacity:1" fill="#ba3914" d="M 25.5,148.5 C 26.5828,152.085 27.2494,155.751 27.5,159.5C 28.5,159.5 29.5,159.5 30.5,159.5C 31.1667,161.833 31.8333,164.167 32.5,166.5C 35.1398,166.954 37.4732,168.121 39.5,170C 38.8333,170.333 38.1667,170.667 37.5,171C 38.3805,171.708 39.0472,172.542 39.5,173.5C 30.6946,167.909 25.3613,159.909 23.5,149.5C 24.1667,149.167 24.8333,148.833 25.5,148.5 Z"/></g>
<g><path style="opacity:1" fill="#bd3512" d="M 102.5,165.5 C 97.0192,170.746 90.6859,174.746 83.5,177.5C 84.6016,175.908 83.935,175.075 81.5,175C 82.9308,174.535 84.0975,173.701 85,172.5C 86.1068,173.712 86.6068,173.379 86.5,171.5C 87.1174,171.611 87.6174,171.944 88,172.5C 91.1627,170.585 94.4961,168.919 98,167.5C 99.8114,166.576 99.6447,165.743 97.5,165C 98.4162,164.626 99.2496,164.126 100,163.5C 100.417,164.756 101.25,165.423 102.5,165.5 Z"/></g>
<g><path style="opacity:0.808" fill="#6e6220" d="M 121.5,170.5 C 122.434,171.568 122.768,172.901 122.5,174.5C 121.751,173.469 121.085,172.302 120.5,171C 120.728,170.601 121.062,170.435 121.5,170.5 Z"/></g>
<g><path style="opacity:1" fill="#f1da00" d="M 176.5,134.5 C 171.773,132.87 166.94,131.537 162,130.5C 153.959,130.225 145.792,132.392 137.5,137C 134.429,139.805 132.096,143.138 130.5,147C 130.833,147.333 131.167,147.667 131.5,148C 130.257,149.154 129.257,150.488 128.5,152C 129.833,153.667 129.833,155.333 128.5,157C 131.047,162.584 133.213,168.417 135,174.5C 137.196,177.025 139.362,179.525 141.5,182C 146.685,185.667 152.519,188.167 159,189.5C 161.984,188.182 164.984,188.182 168,189.5C 171.216,187.483 175.049,185.65 179.5,184C 190.629,176.254 194.295,166.254 190.5,154C 190.957,153.586 191.291,153.086 191.5,152.5C 189.041,150.073 188.041,147.073 188.5,143.5C 190.194,144.527 191.527,145.861 192.5,147.5C 193.11,148.391 193.443,149.391 193.5,150.5C 192.957,150.56 192.624,150.893 192.5,151.5C 196.777,166.831 192.777,179.331 180.5,189C 175.657,191.517 170.823,194.017 166,196.5C 163.319,196.329 160.485,196.163 157.5,196C 147.764,193.42 139.097,188.42 131.5,181C 127.862,174.288 125.528,167.122 124.5,159.5C 125.232,156.863 125.232,154.363 124.5,152C 125.715,149.904 126.549,150.071 127,152.5C 128.309,150.314 128.476,148.147 127.5,146C 130.968,138.532 136.468,133.032 144,129.5C 144.333,129.833 144.667,130.167 145,130.5C 147.022,129.214 149.189,128.214 151.5,127.5C 154.167,127.5 156.833,127.5 159.5,127.5C 161.548,128.77 163.548,129.103 165.5,128.5C 169.491,130.143 173.157,132.143 176.5,134.5 Z"/></g>
<g><path style="opacity:1" fill="#d8c30b" d="M 193.5,150.5 C 194.167,151.167 194.833,151.833 195.5,152.5C 199.453,160.388 200.453,168.721 198.5,177.5C 194.5,180.988 190.833,184.821 187.5,189C 182.63,191.007 183.296,192.007 189.5,192C 187.587,193.53 184.92,194.864 181.5,196C 183.935,196.075 184.602,196.908 183.5,198.5C 171.956,206.353 159.623,207.52 146.5,202C 142.589,200.556 139.256,198.389 136.5,195.5C 135.738,193.738 134.404,192.738 132.5,192.5C 127.109,187.724 123.775,181.724 122.5,174.5C 122.768,172.901 122.434,171.568 121.5,170.5C 121.5,170.167 121.5,169.833 121.5,169.5C 121.5,165.833 121.5,162.167 121.5,158.5C 122.609,158.557 123.609,158.89 124.5,159.5C 125.528,167.122 127.862,174.288 131.5,181C 139.097,188.42 147.764,193.42 157.5,196C 160.485,196.163 163.319,196.329 166,196.5C 170.823,194.017 175.657,191.517 180.5,189C 192.777,179.331 196.777,166.831 192.5,151.5C 192.624,150.893 192.957,150.56 193.5,150.5 Z"/></g>
<g><path style="opacity:1" fill="#b3a11a" d="M 198.5,177.5 C 196.176,186.506 191.176,193.506 183.5,198.5C 184.602,196.908 183.935,196.075 181.5,196C 184.92,194.864 187.587,193.53 189.5,192C 183.296,192.007 182.63,191.007 187.5,189C 190.833,184.821 194.5,180.988 198.5,177.5 Z"/></g>
<g><path style="opacity:0.639" fill="#5b5121" d="M 132.5,192.5 C 134.404,192.738 135.738,193.738 136.5,195.5C 134.596,195.262 133.262,194.262 132.5,192.5 Z"/></g>
</svg>
