<?xml version="1.0" encoding="UTF-8"?>
<!DOCTYPE svg PUBLIC "-//W3C//DTD SVG 1.1//EN" "http://www.w3.org/Graphics/SVG/1.1/DTD/svg11.dtd">
<svg xmlns="http://www.w3.org/2000/svg" version="1.1" width="122px" height="117px" style="shape-rendering:geometricPrecision; text-rendering:geometricPrecision; image-rendering:optimizeQuality; fill-rule:evenodd; clip-rule:evenodd" xmlns:xlink="http://www.w3.org/1999/xlink">
<g><path style="opacity:0.996" fill="#feac33" d="M 78.5,41.5 C 88.9869,42.4944 99.6536,42.8278 110.5,42.5C 115.119,43.1268 117.119,45.7935 116.5,50.5C 117.317,52.3077 116.65,53.8077 114.5,55C 105.62,60.9334 96.9532,67.1001 88.5,73.5C 92.238,84.3804 95.5713,95.3804 98.5,106.5C 97.9853,112.193 94.9853,114.693 89.5,114C 79.8333,107.5 70.1667,101 60.5,94.5C 59.5832,95.1272 58.5832,95.4606 57.5,95.5C 55.5956,95.7376 54.2623,96.7376 53.5,98.5C 51.9731,98.427 50.9731,99.0937 50.5,100.5C 48.2297,102.975 45.563,104.975 42.5,106.5C 40.9731,106.427 39.9731,107.094 39.5,108.5C 37.0024,111.486 33.8357,113.486 30,114.5C 24.2078,113.581 21.8744,110.248 23,104.5C 25.8654,94.0706 29.0321,83.7373 32.5,73.5C 30.1215,71.1223 27.4549,69.1223 24.5,67.5C 24.0334,64.7026 22.3667,63.3692 19.5,63.5C 16.437,61.9748 13.7703,59.9748 11.5,57.5C 10.4206,55.457 8.75398,54.1237 6.5,53.5C 5.83333,53.5 5.5,53.1667 5.5,52.5C 5.12487,50.3024 4.4582,48.3024 3.5,46.5C 4.60613,43.9228 6.60613,42.2561 9.5,41.5C 20.5,42.8333 31.5,42.8333 42.5,41.5C 45.1869,34.4296 47.8535,27.4296 50.5,20.5C 53.1659,19.4908 53.8326,17.8242 52.5,15.5C 52.165,10.3235 54.3317,6.65686 59,4.5C 62.075,4.36769 64.7416,5.70103 67,8.5C 70.5465,19.641 74.3798,30.641 78.5,41.5 Z"/></g>
<g><path style="opacity:0.984" fill="#feb336" d="M 52.5,15.5 C 53.8326,17.8242 53.1659,19.4908 50.5,20.5C 50.4021,18.4471 51.0687,16.7804 52.5,15.5 Z"/></g>
<g><path style="opacity:0.667" fill="#efa12e" d="M 42.5,41.5 C 31.5,42.8333 20.5,42.8333 9.5,41.5C 20.5248,40.4973 31.5248,40.4973 42.5,41.5 Z"/></g>
<g><path style="opacity:0.66" fill="#efa22f" d="M 110.5,41.5 C 110.5,41.8333 110.5,42.1667 110.5,42.5C 99.6536,42.8278 88.9869,42.4944 78.5,41.5C 89.1116,41.0945 99.7782,41.0945 110.5,41.5 Z"/></g>
<g><path style="opacity:0.569" fill="#f2a834" d="M 110.5,42.5 C 110.5,42.1667 110.5,41.8333 110.5,41.5C 114.981,41.6417 117.648,43.9751 118.5,48.5C 118.145,49.5223 117.478,50.189 116.5,50.5C 117.119,45.7935 115.119,43.1268 110.5,42.5 Z"/></g>
<g><path style="opacity:0.346" fill="#f2a534" d="M 3.5,46.5 C 4.4582,48.3024 5.12487,50.3024 5.5,52.5C 3.69206,51.0821 3.02539,49.0821 3.5,46.5 Z"/></g>
<g><path style="opacity:0.478" fill="#f6ac34" d="M 6.5,53.5 C 8.75398,54.1237 10.4206,55.457 11.5,57.5C 9.20537,56.8645 7.5387,55.5311 6.5,53.5 Z"/></g>
<g><path style="opacity:0.453" fill="#f4a932" d="M 19.5,63.5 C 22.3667,63.3692 24.0334,64.7026 24.5,67.5C 22.8089,66.1363 21.1423,64.803 19.5,63.5 Z"/></g>
<g><path style="opacity:0.346" fill="#feb736" d="M 57.5,95.5 C 56.7377,97.2624 55.4044,98.2624 53.5,98.5C 54.2623,96.7376 55.5956,95.7376 57.5,95.5 Z"/></g>
<g><path style="opacity:0.024" fill="#feb635" d="M 53.5,98.5 C 53.0269,99.9063 52.0269,100.573 50.5,100.5C 50.9731,99.0937 51.9731,98.427 53.5,98.5 Z"/></g>
<g><path style="opacity:0.414" fill="#feb433" d="M 42.5,106.5 C 42.0269,107.906 41.0269,108.573 39.5,108.5C 39.9731,107.094 40.9731,106.427 42.5,106.5 Z"/></g>
</svg>
